<svg xmlns="http://www.w3.org/2000/svg" width="335.458" height="39.854" viewBox="0 0 335.458 39.854">
    <g transform="translate(-39.855 -47.047)">
        <path d="M6.291-379.918H3.717a.416.416,0,0,1-.345-.183L-2.06-387.98H-5.171v7.641a.421.421,0,0,1-.419.42H-7.726a.42.42,0,0,1-.419-.42v-19.194a.42.42,0,0,1,.419-.419H-.088a6.377,6.377,0,0,1,4.56,1.706,5.664,5.664,0,0,1,1.8,4.253,5.822,5.822,0,0,1-1.533,4.04,6,6,0,0,1-3.308,1.813l5.2,7.564a.419.419,0,0,1,.027.434A.418.418,0,0,1,6.291-379.918ZM-5.171-397.167h0v6.345H-.088a3.254,3.254,0,0,0,2.39-.895,3.027,3.027,0,0,0,.94-2.277,2.937,2.937,0,0,0-.937-2.246l-.008-.008a3.2,3.2,0,0,0-2.386-.92Z" transform="translate(115.061 456.936)" fill="#5343c2"/>
        <path d="M42.825,74.318h0a10.5,10.5,0,0,1,0-14.633v0a10.092,10.092,0,0,1,7.386-2.973A9.985,9.985,0,0,1,59.354,62.5a.42.42,0,0,1-.22.559l-1.943.822a.42.42,0,0,1-.544-.21,7.066,7.066,0,0,0-2.587-2.979l-.006,0a6.647,6.647,0,0,0-3.843-1.16,6.964,6.964,0,0,0-5.2,2.176l0,0A7.236,7.236,0,0,0,42.883,67a7.33,7.33,0,0,0,2.125,5.327,7.011,7.011,0,0,0,5.2,2.15,6.766,6.766,0,0,0,3.846-1.135,7.255,7.255,0,0,0,2.59-3.009.42.42,0,0,1,.544-.21l1.944.823a.42.42,0,0,1,.22.558,9.886,9.886,0,0,1-3.542,4.152l0,0a9.815,9.815,0,0,1-5.6,1.634,10.089,10.089,0,0,1-7.386-2.974Z" fill="#5343c2" fill-rule="evenodd"/>
        <path d="M343.267,75.657a9.611,9.611,0,0,1-5.514,1.634,10.292,10.292,0,1,1,0-20.583,9.912,9.912,0,0,1,9.074,5.787.381.381,0,0,1-.186.5l-.994.468a.381.381,0,0,1-.508-.186,8.137,8.137,0,0,0-2.957-3.447,7.814,7.814,0,0,0-4.429-1.313,8.483,8.483,0,1,0,0,16.966,7.814,7.814,0,0,0,4.429-1.313,8.137,8.137,0,0,0,2.957-3.448.38.38,0,0,1,.508-.186l.994.468a.381.381,0,0,1,.186.5A9.666,9.666,0,0,1,343.267,75.657Z" fill="#5343c2"/>
        <path d="M256.687,57.22l-7.3,17.936-7.3-17.935a.38.38,0,0,0-.352-.237h-1.188a.38.38,0,0,0-.352.525l7.87,19.27a.38.38,0,0,0,.352.237h1.933a.382.382,0,0,0,.353-.237l7.87-19.27a.381.381,0,0,0-.353-.526H257.04a.382.382,0,0,0-.353.238Z" fill="#5343c2"/>
        <path d="M310.7,77.016a.38.38,0,0,0,.38-.381V57.365a.38.38,0,0,0-.38-.382H309.6a.382.382,0,0,0-.381.382v19.27a.382.382,0,0,0,.381.381Z" fill="#5343c2"/>
        <path d="M374.932,77.016a.38.38,0,0,0,.381-.381V75.589a.381.381,0,0,0-.381-.381H365.1V67.9h9.561a.38.38,0,0,0,.38-.381V66.477a.38.38,0,0,0-.38-.381H365.1v-7.3h9.837a.38.38,0,0,0,.381-.381V57.365a.381.381,0,0,0-.381-.382H363.61a.382.382,0,0,0-.381.382v19.27a.382.382,0,0,0,.381.381h11.322Z" fill="#5343c2"/>
        <path d="M271.769,67a10.174,10.174,0,1,0,2.984-7.318A9.945,9.945,0,0,0,271.769,67Zm16.321-6.036v0a8.64,8.64,0,0,1,0,12.068h0a8.106,8.106,0,0,1-6,2.448,8.483,8.483,0,1,1,0-16.966,8.105,8.105,0,0,1,6,2.447Z" fill="#5343c2" fill-rule="evenodd"/>
        <path d="M91.866,76.834a.42.42,0,0,1-.347.184h-2.3a.42.42,0,0,1-.39-.267l-1.894-4.834H77.1L75.21,76.751a.42.42,0,0,1-.39.267H72.6a.42.42,0,0,1-.39-.575L79.8,57.249a.42.42,0,0,1,.39-.266h3.75a.42.42,0,0,1,.39.266l7.583,19.194a.42.42,0,0,1-.043.39Zm-6-7.7L82.02,59.27l-3.848,9.86Z" fill="#5343c2" fill-rule="evenodd"/>
        <path d="M137.732,77.017a.42.42,0,0,1-.42-.42V57.4a.42.42,0,0,1,.42-.42H145.4a5.917,5.917,0,0,1,4.229,1.567,5.132,5.132,0,0,1,1.693,3.9,4.567,4.567,0,0,1-1.205,3.218,4.99,4.99,0,0,1-1.566,1.154,5.426,5.426,0,0,1,2.118,1.245,4.544,4.544,0,0,1,1.474,3.487,5.13,5.13,0,0,1-1.693,3.9,5.912,5.912,0,0,1-4.229,1.568h-8.486Zm9.84-16.43,0,0a3.153,3.153,0,0,0-2.308-.868h-5v5.933h5a3.208,3.208,0,0,0,2.31-.843,2.854,2.854,0,0,0,.884-2.137,2.73,2.73,0,0,0-.882-2.08Zm-7.313,13.7h5.713a3.114,3.114,0,0,0,2.28-.868,2.817,2.817,0,0,0,.886-2.112,2.77,2.77,0,0,0-.881-2.108,3.173,3.173,0,0,0-2.285-.844h-5.713Z" fill="#5343c2" fill-rule="evenodd"/>
        <path d="M224.555,57.4a.42.42,0,0,1,.42-.42h2.135a.42.42,0,0,1,.42.42V76.6a.42.42,0,0,1-.42.42h-4.188a.418.418,0,0,1-.371-.224l-9.065-17.226V76.6a.42.42,0,0,1-.419.42h-2.136a.42.42,0,0,1-.419-.42V57.4a.42.42,0,0,1,.419-.42h4.189a.42.42,0,0,1,.371.224l9.064,17.251V57.4Z" fill="#5343c2" fill-rule="evenodd"/>
        <path d="M19.927,23.393c-6.206,0-10.815-.783-14.09-2.393a10.557,10.557,0,0,1-4.271-3.589A10.192,10.192,0,0,1,0,11.7,10.19,10.19,0,0,1,1.566,5.98,10.555,10.555,0,0,1,5.837,2.392C9.112.782,13.721,0,19.927,0S30.742.783,34.018,2.392a10.555,10.555,0,0,1,4.27,3.589A10.192,10.192,0,0,1,39.854,11.7a10.191,10.191,0,0,1-1.566,5.715A10.556,10.556,0,0,1,34.018,21C30.742,22.61,26.133,23.393,19.927,23.393Zm0-21.293c-5.8,0-10.226.733-13.166,2.178a8.387,8.387,0,0,0-3.445,2.86A8.022,8.022,0,0,0,2.1,11.7a8.028,8.028,0,0,0,1.218,4.558,8.391,8.391,0,0,0,3.445,2.861c2.941,1.445,7.371,2.178,13.166,2.178s10.224-.733,13.167-2.178a8.393,8.393,0,0,0,3.443-2.86,8.028,8.028,0,0,0,1.22-4.558,8.026,8.026,0,0,0-1.22-4.558,8.4,8.4,0,0,0-3.443-2.861C30.152,2.832,25.722,2.1,19.927,2.1Z" transform="translate(193.84 47.047) rotate(90)" fill="#5343c2"/>
        <path d="M19.927,23.393c-6.206,0-10.815-.783-14.09-2.393a10.557,10.557,0,0,1-4.271-3.589A10.192,10.192,0,0,1,0,11.7,10.19,10.19,0,0,1,1.566,5.98,10.555,10.555,0,0,1,5.837,2.392C9.112.782,13.721,0,19.927,0S30.742.783,34.018,2.392a10.555,10.555,0,0,1,4.27,3.589A10.192,10.192,0,0,1,39.854,11.7a10.191,10.191,0,0,1-1.566,5.715A10.556,10.556,0,0,1,34.018,21C30.742,22.61,26.133,23.393,19.927,23.393Zm0-21.293c-5.8,0-10.226.733-13.166,2.178a8.387,8.387,0,0,0-3.445,2.86A8.022,8.022,0,0,0,2.1,11.7a8.028,8.028,0,0,0,1.218,4.558,8.391,8.391,0,0,0,3.445,2.861c2.941,1.445,7.371,2.178,13.166,2.178s10.224-.733,13.167-2.178a8.393,8.393,0,0,0,3.443-2.86,8.028,8.028,0,0,0,1.22-4.558,8.026,8.026,0,0,0-1.22-4.558,8.4,8.4,0,0,0-3.443-2.861C30.152,2.832,25.722,2.1,19.927,2.1Z" transform="translate(161.514 55.074)" fill="#5343c2"/>
        <path d="M2.849-377.706a10.613,10.613,0,0,1-7.818-3.214,10.863,10.863,0,0,1-3.176-7.91,10.862,10.862,0,0,1,3.176-7.909,10.61,10.61,0,0,1,7.818-3.214,10.61,10.61,0,0,1,7.818,3.213,10.864,10.864,0,0,1,3.177,7.91,10.861,10.861,0,0,1-3.177,7.91A10.61,10.61,0,0,1,2.849-377.706Zm0-20.146a8.472,8.472,0,0,0-6.327,2.59,8.717,8.717,0,0,0-2.569,6.432A8.721,8.721,0,0,0-3.478-382.4a8.472,8.472,0,0,0,6.327,2.589A8.476,8.476,0,0,0,9.177-382.4a8.721,8.721,0,0,0,2.569-6.433,8.717,8.717,0,0,0-2.569-6.432A8.476,8.476,0,0,0,2.849-397.852Z" transform="translate(179.279 455.715)" fill="#5343c2"/>
    </g>
</svg>
