<svg xmlns="http://www.w3.org/2000/svg" width="43" height="43" viewBox="0 0 43 43">
    <g transform="translate(168 -502)">
        <rect width="43" height="43" transform="translate(-168 502)" fill="#e4e4e4"/>
        <g transform="translate(-161 509)">
            <g id="profile">
                <path id="Vector" d="M5.451,11.261q-.037,0-.075,0c-.024,0-.063-.005-.116-.005s-.09,0-.132.006a.751.751,0,0,1-.093,0,5.988,5.988,0,0,1-5.785-6A6.011,6.011,0,1,1,9.579,9.438a5.958,5.958,0,0,1-4.1,1.822ZM5.261.75a4.507,4.507,0,0,0-.217,9.01,2.952,2.952,0,0,1,.425,0A4.507,4.507,0,0,0,5.261.75Z" transform="translate(8.958 2.37)" fill="#5343c2"/>
                <path d="M8.09-.75A11.511,11.511,0,0,1,14.429,1a4.976,4.976,0,0,1,2.484,4.091A4.993,4.993,0,0,1,14.43,9.205a11.512,11.512,0,0,1-6.348,1.762A11.512,11.512,0,0,1,1.734,9.206,4.975,4.975,0,0,1-.75,5.115,4.993,4.993,0,0,1,1.734,1,11.6,11.6,0,0,1,8.09-.75ZM8.082,9.467A10.006,10.006,0,0,0,13.6,7.959,3.555,3.555,0,0,0,15.413,5.1,3.538,3.538,0,0,0,13.6,2.251,10.006,10.006,0,0,0,8.09.75a10.094,10.094,0,0,0-5.525,1.5A3.553,3.553,0,0,0,.75,5.112,3.538,3.538,0,0,0,2.566,7.958,10.006,10.006,0,0,0,8.082,9.467Z" transform="translate(6.334 15.627)" fill="#5343c2"/>
                <path d="M0,0H28.439V28.439H0Z" transform="translate(28.439 28.439) rotate(180)" fill="none" opacity="0"/>
            </g>
        </g>
    </g>
</svg>
